# xmcd CD database file
#
# Track frame offsets:
#	150
#	15851
#	31117
#	46227
#	71640
#	94211
#	116603
#	136251
#	152419
#	174808
#	196219
#
# Disc length: 2962 seconds
#
# Revision: 1
# Processed by: cddbd v1.5PL3 Copyright (c) Steve Scherf et al.
# Submitted via: CDex 1.50
#
DISCID=7a0b900b
DTITLE=Chris Thomas King - A Young Man's Blues
DYEAR=2002
DGENRE=Blues
TTITLE0=The Game
TTITLE1=Wanna Die With a Smile on My Face
TTITLE2=Help Us, Somebody
TTITLE3=Plaquemine Blues
TTITLE4=I'm Gonna Make It
TTITLE5=Simple
TTITLE6=Itch
TTITLE7=Sad, Sad World
TTITLE8=The Devil's Daughter
TTITLE9=Blood on the Dagger
TTITLE10=Valley of Dreams
EXTD=YEAR: 2002
EXTT0=
EXTT1=
EXTT2=
EXTT3=
EXTT4=
EXTT5=
EXTT6=
EXTT7=
EXTT8=
EXTT9=
EXTT10=
PLAYORDER=
